<svg width="18" height="80" viewBox="0 0 18 80" fill="none" xmlns="http://www.w3.org/2000/svg">
<g id="Group">
<path id="Vector" d="M15.1805 44.1978L13.4438 51.9679L13.8309 53.6997L15.5675 45.9296L15.1805 44.1978Z" fill="#0A557F"/>
<path id="Vector_2" d="M13.0577 53.6923L12.6707 55.4241L13.0577 57.1559L13.4448 55.4241L13.0577 53.6923Z" fill="#0A557F"/>
<path id="Vector_3" d="M9.36894 1.64817L7.63225 9.41823L8.01933 11.15L9.75602 3.37998L9.36894 1.64817Z" fill="#0A557F"/>
<path id="Vector_4" d="M7.24596 11.1409L6.85888 12.8727L7.24596 14.6045L7.63304 12.8727L7.24596 11.1409Z" fill="#0A557F"/>
<path id="Vector_5" d="M1.63462 39.7351L4.26588 27.9464L7.45915 24.8278L3.61628 42.021L1.63462 39.7351Z" fill="#CFF1FF"/>
<path id="Vector_6" d="M4.60166 66.7087L3.93381 63.7207L4.83523 59.6877L4.44839 57.957L3.54697 61.9899L2.95941 59.3612L4.56152 48.9767L6.85338 59.2142L4.60166 66.7087Z" fill="#4CC3F2"/>
<path id="Vector_7" d="M4.72653 40.5119L4.08656 43.3752L8.09412 61.3052L8.73409 58.4419L4.72653 40.5119Z" fill="#CFF1FF"/>
<path id="Vector_8" d="M11.5465 60.5204L8.91162 72.2928L8.4007 63.4104L12.2399 46.2336L11.5465 60.5204Z" fill="#CFF1FF"/>
<path id="Vector_9" d="M9.1233 56.7161L5.11255 38.7881L11.1743 11.6676L12.9844 19.7662L11.667 25.6606C10.9845 23.44 10.0247 23.7012 9.40796 26.4606C8.79485 29.2037 8.73281 33.5142 9.22914 36.5675L8.08686 41.6781L8.4737 43.4089L9.61598 38.2983C10.2984 40.5189 11.2582 40.2413 11.875 37.4982C12.4881 34.7552 12.5501 30.4446 12.0538 27.3913L13.3713 21.497L15.1814 29.5956L9.1233 56.7161Z" fill="#4CC3F2"/>
<path id="Vector_10" d="M15.5647 27.8648L11.5649 9.9532C12.4371 6.36108 13.3677 4.41807 14.2399 3.42208L17.0245 15.8802C16.8018 19.7989 16.3712 23.9625 15.5647 27.8648Z" fill="#CFF1FF"/>
<path id="Vector_11" d="M17.4658 0.336252C17.4074 0.319925 17.3454 0.287269 17.2797 0.270941C15.9805 -0.202566 13.2799 -1.21489 10.9807 9.08796L8.17432 21.6441L3.99204 25.726L0.568852 41.0415L3.55776 44.503L4.16722 47.2298L2.25125 59.6716L3.15997 63.7372L2.63809 66.0721L3.02494 67.8028L3.54681 65.4679L4.54676 69.9418L7.24371 60.9778L7.84952 63.6882L8.6232 77.0607L12.0464 61.7452L12.9588 43.0335L15.7652 30.4774C18.0643 20.1909 17.8417 8.1083 17.7359 2.29559C17.7322 2.00169 17.7249 1.72412 17.7213 1.46287L17.703 0.417892L17.4658 0.336252ZM4.6015 66.7088L3.93365 63.7209L4.83506 59.6879L4.44822 57.9571L3.54681 61.9901L2.95925 59.3613L4.56136 48.9768L6.85321 59.2307L4.6015 66.7088ZM1.63449 39.7353L4.2694 27.9466L7.46267 24.828L3.61615 42.0212L1.63449 39.7353ZM8.73268 58.447L8.09403 61.3207L4.08693 43.3764L4.72558 40.519L8.73268 58.447ZM11.5464 60.5206L8.91516 72.293L8.40423 63.4106L12.2471 46.2174L11.5464 60.5206ZM9.12318 56.7162L5.11242 38.7883L11.1742 11.6678L12.9843 19.7664L11.6668 25.6607C10.9844 23.4401 10.0246 23.7014 9.40783 26.4608C8.79472 29.2038 8.73268 33.5144 9.22901 36.5677L8.08673 41.6783L8.47357 43.409L9.61585 38.2984C10.2983 40.519 11.2581 40.2414 11.8749 37.4984C12.488 34.7553 12.55 30.4448 12.0537 27.3915L13.3711 21.4971L15.1813 29.5957L9.12318 56.7162ZM11.488 28.2078C11.9552 30.2978 11.9552 33.694 11.488 35.784C11.0209 37.8739 10.2618 37.8739 9.79467 35.784C9.32754 33.694 9.32754 30.2978 9.79467 28.2078C10.2618 26.1179 11.0209 26.1179 11.488 28.2078ZM17.0242 15.8803C16.8016 19.7827 16.371 23.9463 15.5645 27.8486L11.5647 9.95334C12.4369 6.36122 13.3675 4.41821 14.2397 3.42221L17.0242 15.8803ZM17.1556 13.0066L14.882 2.85074C15.809 2.21395 16.6301 2.49152 17.1885 2.70379C17.2359 5.20194 17.298 8.8757 17.1556 13.0066Z" fill="#0A557F"/>
<path id="Vector_12" d="M2.2515 67.7871L1.86442 69.5189L2.2515 71.2508L2.63858 69.5189L2.2515 67.7871Z" fill="#0A557F"/>
<path id="Vector_13" d="M3.77415 69.9387L2.68517 74.8108L3.07225 76.5427L4.16123 71.6705L3.77415 69.9387Z" fill="#0A557F"/>
<path id="Vector_14" d="M2.29943 76.5361L1.9123 78.2679L2.29938 80L2.68651 78.2682L2.29943 76.5361Z" fill="#0A557F"/>
<path id="Vector_15" d="M1.86358 61.3814L0.774592 66.2535L1.16167 67.9853L2.25065 63.1132L1.86358 61.3814Z" fill="#0A557F"/>
<path id="Vector_16" d="M0.387079 68.0031L0 69.7349L0.387079 71.4667L0.774159 69.7349L0.387079 68.0031Z" fill="#0A557F"/>
<path id="Vector_17" d="M7.69648 43.4311L7.3094 45.1629L7.69648 46.8947L8.08356 45.1629L7.69648 43.4311Z" fill="white"/>
</g>
</svg>
