<svg width="20" height="20" viewBox="0 0 20 20" fill="none" xmlns="http://www.w3.org/2000/svg">
<g id="Frame">
<path id="Vector" d="M18.8 10.2083C18.8 9.55825 18.7417 8.93325 18.6333 8.33325H10V11.8833H14.9333C14.7167 13.0249 14.0667 13.9916 13.0917 14.6416V16.9499H16.0667C17.8 15.3499 18.8 12.9999 18.8 10.2083Z" fill="#4285F4"/>
<path id="Vector_2" d="M9.99998 19.1667C12.475 19.1667 14.55 18.35 16.0667 16.95L13.0917 14.6417C12.275 15.1917 11.2333 15.525 9.99998 15.525C7.61665 15.525 5.59165 13.9167 4.86665 11.75H1.81665V14.1167C3.32498 17.1083 6.41665 19.1667 9.99998 19.1667Z" fill="#34A853"/>
<path id="Vector_3" d="M4.86671 11.7416C4.68337 11.1916 4.57504 10.6083 4.57504 9.99993C4.57504 9.3916 4.68337 8.80827 4.86671 8.25827V5.8916H1.81671C1.19171 7.12493 0.833374 8.5166 0.833374 9.99993C0.833374 11.4833 1.19171 12.8749 1.81671 14.1083L4.19171 12.2583L4.86671 11.7416Z" fill="#FBBC05"/>
<path id="Vector_4" d="M9.99998 4.48325C11.35 4.48325 12.55 4.94992 13.5083 5.84992L16.1333 3.22492C14.5417 1.74159 12.475 0.833252 9.99998 0.833252C6.41665 0.833252 3.32498 2.89159 1.81665 5.89159L4.86665 8.25825C5.59165 6.09159 7.61665 4.48325 9.99998 4.48325Z" fill="#EA4335"/>
</g>
</svg>
