<svg width="23" height="20" viewBox="0 0 23 20" fill="none" xmlns="http://www.w3.org/2000/svg">
<g id="Frame">
<path id="Vector" d="M14.375 10C14.375 10.663 14.0721 11.2989 13.5329 11.7678C12.9938 12.2366 12.2625 12.5 11.5 12.5C10.7375 12.5 10.0062 12.2366 9.46707 11.7678C8.9279 11.2989 8.625 10.663 8.625 10C8.625 9.33696 8.9279 8.70107 9.46707 8.23223C10.0062 7.76339 10.7375 7.5 11.5 7.5C12.2625 7.5 12.9938 7.76339 13.5329 8.23223C14.0721 8.70107 14.375 9.33696 14.375 10Z" stroke="black" stroke-width="2" stroke-linecap="round" stroke-linejoin="round"/>
<path id="Vector_2" d="M2.35559 10.0001C3.57651 6.61925 7.20955 4.16675 11.5 4.16675C15.7914 4.16675 19.4235 6.61925 20.6444 10.0001C19.4235 13.3809 15.7914 15.8334 11.5 15.8334C7.20955 15.8334 3.57651 13.3809 2.35559 10.0001Z" stroke="black" stroke-width="2" stroke-linecap="round" stroke-linejoin="round"/>
</g>
</svg>
