<svg width="81" height="83" viewBox="0 0 81 83" fill="none" xmlns="http://www.w3.org/2000/svg">
<g id="Group">
<path id="Vector" d="M68.8265 45.8554L60.9525 53.9169L62.7075 55.7136L70.5814 47.6522L68.8265 45.8554Z" fill="#0A557F"/>
<path id="Vector_2" d="M59.202 55.7058L57.4471 57.5026L59.202 59.2993L60.957 57.5026L59.202 55.7058Z" fill="#0A557F"/>
<path id="Vector_3" d="M42.4773 1.71015L34.6033 9.77157L36.3583 11.5683L44.2322 3.5069L42.4773 1.71015Z" fill="#0A557F"/>
<path id="Vector_4" d="M32.8521 11.5588L31.0971 13.3556L32.8521 15.1523L34.607 13.3556L32.8521 11.5588Z" fill="#0A557F"/>
<path id="Vector_5" d="M7.41129 41.2253L19.341 28.9946L33.8189 25.759L16.3958 43.5969L7.41129 41.2253Z" fill="#CFF1FF"/>
<path id="Vector_6" d="M20.8631 69.2103L17.8352 66.1102L21.9221 61.926L20.1682 60.1304L16.0813 64.3146L13.4174 61.5872L20.6811 50.8134L31.0721 61.4348L20.8631 69.2103Z" fill="#4CC3F2"/>
<path id="Vector_7" d="M21.4298 42.0313L18.5282 45.0019L36.698 63.6042L39.5995 60.6336L21.4298 42.0313Z" fill="#CFF1FF"/>
<path id="Vector_8" d="M52.3504 62.79L40.4041 75.0038L38.0876 65.7884L55.4941 47.9674L52.3504 62.79Z" fill="#CFF1FF"/>
<path id="Vector_9" d="M41.3638 58.843L23.1796 40.2427L50.6627 12.1053L58.8696 20.5075L52.8964 26.6229C49.8023 24.3191 45.4507 24.5901 42.6544 27.453C39.8746 30.2989 39.5934 34.7711 41.8436 37.9389L36.6647 43.2411L38.4186 45.0368L43.5975 39.7345C46.6916 42.0384 51.0433 41.7504 53.8396 38.9045C56.6193 36.0585 56.9006 31.5864 54.6503 28.4186L60.6235 22.3032L68.8304 30.7055L41.3638 58.843Z" fill="#4CC3F2"/>
<path id="Vector_10" d="M70.5678 28.9098L52.4332 10.3266C56.3878 6.59974 60.607 4.58387 64.5616 3.55052L77.1863 16.4758C76.1769 20.5414 74.2245 24.8611 70.5678 28.9098Z" fill="#CFF1FF"/>
<path id="Vector_11" d="M79.1882 0.348861C78.9235 0.331921 78.6422 0.298041 78.3444 0.281101C72.454 -0.210162 60.2098 -1.26045 49.7858 9.42875L37.0618 22.4557L18.0999 26.6907L2.57967 42.5805L16.1309 46.1718L18.8942 49.0008L10.2074 61.9091L14.3274 66.1272L11.9613 68.5496L13.7152 70.3453L16.0813 67.9228L20.6149 72.5644L32.8425 63.2643L35.5892 66.0764L39.097 79.9503L54.6172 64.0605L58.7538 44.6472L71.4777 31.6203C81.9018 20.948 80.8925 8.41234 80.4127 2.38167C80.3961 2.07675 80.363 1.78877 80.3465 1.51773L80.2637 0.433562L79.1882 0.348861ZM20.8631 69.2103L17.8352 66.1103L21.9221 61.9261L20.1682 60.1304L16.0813 64.3146L13.4174 61.5873L20.6811 50.8134L31.0721 61.4517L20.8631 69.2103ZM7.41114 41.2253L19.3574 28.9945L33.8353 25.759L16.3957 43.5969L7.41114 41.2253ZM39.5934 60.6386L36.6978 63.6201L18.5301 45.0029L21.4257 42.0384L39.5934 60.6386ZM52.3504 62.79L40.4207 75.0038L38.1042 65.7884L55.5273 47.9505L52.3504 62.79ZM41.3638 58.843L23.1796 40.2428L50.6627 12.1053L58.8696 20.5076L52.8964 26.6229C49.8023 24.3191 45.4507 24.5901 42.6544 27.453C39.8746 30.2989 39.5934 34.7711 41.8436 37.9389L36.6647 43.2411L38.4186 45.0368L43.5975 39.7346C46.6916 42.0384 51.0433 41.7504 53.8396 38.9045C56.6193 36.0586 56.9006 31.5864 54.6503 28.4186L60.6235 22.3032L68.8304 30.7055L41.3638 58.843ZM52.0857 29.2656C54.2036 31.4339 54.2036 34.9574 52.0857 37.1258C49.9678 39.2941 46.5262 39.2941 44.4083 37.1258C42.2904 34.9574 42.2904 31.4339 44.4083 29.2656C46.5262 27.0973 49.9678 27.0973 52.0857 29.2656ZM77.1862 16.4758C76.1768 20.5245 74.2244 24.8442 70.5677 28.8929L52.4332 10.3266C56.3877 6.59975 60.6069 4.58388 64.5615 3.55054L77.1862 16.4758ZM77.7818 13.4944L67.4736 2.95763C71.6763 2.29697 75.3992 2.58495 77.9307 2.80517C78.1458 5.39701 78.4271 9.20852 77.7818 13.4944Z" fill="#0A557F"/>
<path id="Vector_12" d="M10.2085 70.3292L8.45354 72.126L10.2085 73.9227L11.9635 72.126L10.2085 70.3292Z" fill="#0A557F"/>
<path id="Vector_13" d="M17.1115 72.5614L12.1742 77.6162L13.9292 79.413L18.8665 74.3581L17.1115 72.5614Z" fill="#0A557F"/>
<path id="Vector_14" d="M10.4254 79.4062L8.67022 81.2029L10.4252 83L12.1804 81.2032L10.4254 79.4062Z" fill="#0A557F"/>
<path id="Vector_15" d="M8.44941 63.6832L3.51211 68.7381L5.26708 70.5348L10.2044 65.48L8.44941 63.6832Z" fill="#0A557F"/>
<path id="Vector_16" d="M1.75496 70.5533L0 72.35L1.75496 74.1468L3.50993 72.35L1.75496 70.5533Z" fill="#0A557F"/>
<path id="Vector_17" d="M34.8947 45.0598L33.1398 46.8566L34.8947 48.6533L36.6497 46.8566L34.8947 45.0598Z" fill="white"/>
</g>
</svg>
