<svg width="81" height="87" viewBox="0 0 81 87" fill="none" xmlns="http://www.w3.org/2000/svg">
<g id="Group">
<path id="Vector" d="M69.0952 47.6088L61.1905 55.9784L62.9524 57.8439L70.857 49.4742L69.0952 47.6088Z" fill="#0A557F"/>
<path id="Vector_2" d="M59.4331 57.836L57.6713 59.7014L59.4331 61.5669L61.195 59.7014L59.4331 57.836Z" fill="#0A557F"/>
<path id="Vector_3" d="M42.6432 1.77558L34.7385 10.1453L36.5004 12.0107L44.4051 3.64104L42.6432 1.77558Z" fill="#0A557F"/>
<path id="Vector_4" d="M32.9804 12.0008L31.2185 13.8663L32.9804 15.7318L34.7422 13.8663L32.9804 12.0008Z" fill="#0A557F"/>
<path id="Vector_5" d="M7.44014 42.8017L19.4165 30.1033L33.9509 26.744L16.4598 45.264L7.44014 42.8017Z" fill="#CFF1FF"/>
<path id="Vector_6" d="M20.9447 71.8568L17.9049 68.6383L22.0078 64.2941L20.247 62.4297L16.1442 66.7739L13.4698 63.9423L20.762 52.7564L31.1935 63.784L20.9447 71.8568Z" fill="#4CC3F2"/>
<path id="Vector_7" d="M21.5134 43.6384L18.6005 46.7226L36.8412 66.0363L39.754 62.952L21.5134 43.6384Z" fill="#CFF1FF"/>
<path id="Vector_8" d="M52.5549 65.191L40.562 77.8719L38.2365 68.3041L55.7109 49.8017L52.5549 65.191Z" fill="#CFF1FF"/>
<path id="Vector_9" d="M41.5254 61.0931L23.2702 41.7816L50.8606 12.5682L59.0995 21.2918L53.1031 27.641C49.9969 25.2491 45.6282 25.5305 42.821 28.5028C40.0304 31.4576 39.748 36.1008 42.0071 39.3897L36.8079 44.8947L38.5687 46.759L43.7678 41.254C46.874 43.6459 51.2427 43.3469 54.0499 40.3922C56.8405 37.4374 57.1229 32.7942 54.8638 29.5053L60.8603 23.1561L69.0992 31.8797L41.5254 61.0931Z" fill="#4CC3F2"/>
<path id="Vector_10" d="M70.8433 30.0154L52.638 10.7215C56.6079 6.85217 60.8437 4.75922 64.8136 3.68636L77.4876 17.1059C76.4744 21.327 74.5143 25.8119 70.8433 30.0154Z" fill="#CFF1FF"/>
<path id="Vector_11" d="M79.4975 0.362201C79.2318 0.344613 78.9494 0.309437 78.6504 0.29185C72.737 -0.218198 60.445 -1.30864 49.9802 9.78928L37.2066 23.3143L18.1707 27.7113L2.58981 44.2087L16.194 47.9373L18.968 50.8745L10.2474 64.2764L14.3834 68.6558L12.0081 71.1708L13.7688 73.0352L16.1442 70.5201L20.6955 75.3392L32.9708 65.6834L35.7282 68.603L39.2497 83.0075L54.8306 66.5101L58.9833 46.3544L71.7569 32.8294C82.2217 21.749 81.2084 8.73401 80.7267 2.47274C80.7101 2.15616 80.6769 1.85717 80.6603 1.57576L80.5772 0.45014L79.4975 0.362201ZM20.9447 71.8568L17.9049 68.6382L22.0078 64.294L20.247 62.4297L16.1442 66.7739L13.4698 63.9422L20.762 52.7564L31.1935 63.8015L20.9447 71.8568ZM7.44014 42.8017L19.4331 30.1032L33.9675 26.744L16.4598 45.264L7.44014 42.8017ZM39.748 62.9573L36.8411 66.0528L18.6026 46.7237L21.5094 43.6459L39.748 62.9573ZM52.5549 65.191L40.5786 77.8718L38.2531 68.304L55.7442 49.784L52.5549 65.191ZM41.5254 61.093L23.2702 41.7816L50.8606 12.5682L59.0995 21.2917L53.1031 27.6409C49.9969 25.249 45.6282 25.5304 42.821 28.5027C40.0304 31.4575 39.748 36.1007 42.0071 39.3896L36.8079 44.8946L38.5687 46.7589L43.7678 41.2539C46.874 43.6459 51.2427 43.3469 54.0499 40.3921C56.8405 37.4374 57.1229 32.7942 54.8638 29.5053L60.8603 23.156L69.0992 31.8796L41.5254 61.093ZM52.2891 30.3846C54.4153 32.6359 54.4153 36.2942 52.2891 38.5454C50.163 40.7966 46.7079 40.7966 44.5818 38.5454C42.4556 36.2942 42.4556 32.6359 44.5818 30.3846C46.7079 28.1334 50.163 28.1334 52.2891 30.3846ZM77.4876 17.1058C76.4744 21.3093 74.5143 25.7942 70.8433 29.9977L52.638 10.7214C56.6079 6.85211 60.8437 4.75916 64.8136 3.6863L77.4876 17.1058ZM78.0856 14.0104L67.7371 3.07073C71.9562 2.3848 75.6937 2.6838 78.2351 2.91244C78.4511 5.60338 78.7334 9.56064 78.0856 14.0104Z" fill="#0A557F"/>
<path id="Vector_12" d="M10.2484 73.0184L8.48662 74.8839L10.2484 76.7493L12.0103 74.8839L10.2484 73.0184Z" fill="#0A557F"/>
<path id="Vector_13" d="M17.1783 75.3359L12.2217 80.5841L13.9835 82.4495L18.9401 77.2014L17.1783 75.3359Z" fill="#0A557F"/>
<path id="Vector_14" d="M10.4661 82.4426L8.70403 84.308L10.4658 86.1738L12.2279 84.3083L10.4661 82.4426Z" fill="#0A557F"/>
<path id="Vector_15" d="M8.48245 66.1184L3.52587 71.3666L5.28769 73.232L10.2443 67.9839L8.48245 66.1184Z" fill="#0A557F"/>
<path id="Vector_16" d="M1.76182 73.251L0 75.1164L1.76182 76.9819L3.52364 75.1164L1.76182 73.251Z" fill="#0A557F"/>
<path id="Vector_17" d="M35.0309 46.7828L33.2691 48.6482L35.0309 50.5137L36.7927 48.6482L35.0309 46.7828Z" fill="white"/>
</g>
</svg>
