<svg width="109" height="96" viewBox="0 0 109 96" fill="none" xmlns="http://www.w3.org/2000/svg">
<g id="Frame">
<path id="Vector" d="M91.1548 52.825L81.0237 61.7477L83.2818 63.7364L93.4128 54.8136L91.1548 52.825Z" fill="white"/>
<path id="Vector_2" d="M78.7714 63.7278L76.5134 65.7165L78.7714 67.7052L81.0295 65.7165L78.7714 63.7278Z" fill="white"/>
<path id="Vector_3" d="M57.2527 3.96313L47.1217 12.8858L49.3798 14.8746L59.5108 5.95185L57.2527 3.96313Z" fill="white"/>
<path id="Vector_4" d="M44.8683 14.864L42.6104 16.8527L44.8683 18.8415L47.1264 16.8527L44.8683 14.864Z" fill="white"/>
<path id="Vector_5" d="M12.1348 47.7001L27.4841 34.1626L46.1121 30.5813L23.6947 50.325L12.1348 47.7001Z" fill="#CFF1FF"/>
<path id="Vector_6" d="M29.4429 78.675L25.5469 75.2437L30.8054 70.6125L28.5488 68.625L23.2903 73.2562L19.8628 70.2375L29.2087 58.3125L42.5782 70.0687L29.4429 78.675Z" fill="white"/>
<path id="Vector_7" d="M30.1717 48.5923L26.4385 51.8803L49.8165 72.4702L53.5498 69.1821L30.1717 48.5923Z" fill="#CFF1FF"/>
<path id="Vector_8" d="M69.956 71.5689L54.5853 85.0876L51.6049 74.8876L74.0009 55.1626L69.956 71.5689Z" fill="#CFF1FF"/>
<path id="Vector_9" d="M55.82 67.2L32.4232 46.6125L67.7844 15.4688L78.3438 24.7688L70.6584 31.5375C66.6774 28.9875 61.0783 29.2875 57.4805 32.4562C53.9039 35.6063 53.542 40.5562 56.4374 44.0625L49.7739 49.9313L52.0305 51.9188L58.694 46.05C62.6751 48.6 68.2741 48.2812 71.8719 45.1313C75.4484 41.9813 75.8103 37.0312 72.9151 33.525L80.6004 26.7563L91.1598 36.0562L55.82 67.2Z" fill="white"/>
</g>
</svg>
