<svg width="232" height="195" viewBox="0 0 232 195" fill="none" xmlns="http://www.w3.org/2000/svg">
<g id="b">
<path id="Vector" d="M232 190.305C232 192.64 229.741 194.534 226.956 194.534H5.04347C2.25846 194.534 0 192.64 0 190.305V4.22942C0 1.89417 2.25846 0.000423474 5.04347 0.000423474C7.82847 0.000423474 10.0869 1.89417 10.0869 4.22942V125.657C17.985 112.759 28.2041 96.0976 30.2018 92.9719C35.5852 84.5389 42.3354 84.5283 53.4885 84.5757L55.4933 84.5778C71.5769 84.5778 75.8124 91.5137 78.3588 105.176C78.6937 106.968 79.0362 109.043 79.4054 111.296C82.9489 132.838 86.8152 143.761 90.8934 143.761C96.998 143.761 101.306 126.604 105.864 108.44C107.021 103.827 108.263 98.8777 109.652 93.6388C115.722 70.724 129.251 31.9818 151.639 29.9747C156.399 29.5429 160.993 29.578 165.046 29.6093C174.544 29.6897 179.674 29.5535 182.378 26.0616C193.632 11.5016 202.522 0 226.957 0C229.742 0 232 1.89374 232 4.22899C232 6.56425 229.742 8.45799 226.957 8.45799C208.77 8.45799 202.741 15.2663 190.842 30.6623C185.001 38.2157 174.766 38.1498 164.958 38.0673C160.993 38.0364 156.902 38.0094 152.714 38.3832C143.491 39.2112 129.644 57.1845 119.498 95.4725C118.119 100.68 116.885 105.597 115.735 110.181C109.157 136.395 105.185 152.219 90.8944 152.219C75.9561 152.219 72.3284 130.169 69.4153 112.452C69.0531 110.255 68.7208 108.23 68.396 106.481C65.9948 93.6079 63.5618 93.0358 55.4943 93.0358L53.4653 93.0337C42.4352 92.9863 41.4553 93.2692 39.096 96.9653C36.1294 101.604 13.8569 138.021 10.0885 144.186V186.076H226.956C229.741 186.076 232 187.97 232 190.305ZM226.956 33.8324H211.826C209.041 33.8324 206.782 35.7261 206.782 38.0614C206.782 40.3966 209.041 42.2904 211.826 42.2904H226.956C229.741 42.2904 232 40.3966 232 38.0614C232 35.7261 229.741 33.8324 226.956 33.8324ZM226.956 63.4353H211.826C209.041 63.4353 206.782 65.3291 206.782 67.6643C206.782 69.9996 209.041 71.8933 211.826 71.8933H226.956C229.741 71.8933 232 69.9996 232 67.6643C232 65.3291 229.741 63.4353 226.956 63.4353ZM226.956 93.0383H211.826C209.041 93.0383 206.782 94.932 206.782 97.2673C206.782 99.6025 209.041 101.496 211.826 101.496H226.956C229.741 101.496 232 99.6025 232 97.2673C232 94.932 229.741 93.0383 226.956 93.0383ZM226.956 122.641H211.826C209.041 122.641 206.782 124.535 206.782 126.87C206.782 129.206 209.041 131.099 211.826 131.099H226.956C229.741 131.099 232 129.206 232 126.87C232 124.535 229.741 122.641 226.956 122.641ZM226.956 152.244H211.826C209.041 152.244 206.782 154.138 206.782 156.473C206.782 158.808 209.041 160.702 211.826 160.702H226.956C229.741 160.702 232 158.808 232 156.473C232 154.138 229.741 152.244 226.956 152.244Z" fill="black"/>
</g>
</svg>
