<svg width="100" height="96" viewBox="0 0 100 96" fill="none" xmlns="http://www.w3.org/2000/svg">
<g id="Layer_1" clip-path="url(#clip0_2_40)">
<path id="Vector" d="M50 94.08C76.5097 94.08 98 73.4493 98 48C98 22.5508 76.5097 1.92004 50 1.92004C23.4903 1.92004 2 22.5508 2 48C2 73.4493 23.4903 94.08 50 94.08Z" stroke="black" stroke-width="2" stroke-miterlimit="10" stroke-linecap="round"/>
<path id="Vector_2" d="M59.866 68.2137C59.574 65.1187 59.686 62.9587 59.686 60.1305C61.146 59.3952 63.762 54.7065 64.204 50.7456C65.352 50.6553 67.162 49.5801 67.692 45.335C67.978 43.056 66.842 41.7734 66.15 41.3702C68.018 35.9769 71.898 19.2921 58.974 17.568C57.644 15.3254 54.238 14.1907 49.812 14.1907C32.104 14.5036 29.968 27.0278 33.85 41.3702C33.16 41.7734 32.024 43.056 32.308 45.335C32.84 49.5801 34.648 50.6553 35.796 50.7456C36.236 54.7046 38.956 59.3952 40.42 60.1305C40.42 62.9587 40.53 65.1187 40.238 68.2137C37.716 74.7225 24.764 75.2313 17.292 81.5078C25.104 89.0592 37.764 94.4601 51.124 94.4601C64.484 94.4601 80.188 84.334 82.802 81.5712C75.376 75.2371 62.394 74.7456 59.866 68.2137Z" stroke="black" stroke-width="2" stroke-miterlimit="10" stroke-linecap="round"/>
</g>
<defs>
<clipPath id="clip0_2_40">
<rect width="100" height="96" fill="white"/>
</clipPath>
</defs>
</svg>
