<svg width="16" height="76" viewBox="0 0 16 76" fill="none" xmlns="http://www.w3.org/2000/svg">
<g id="Group">
<path id="Vector" d="M13.6484 41.6091L12.087 48.924L12.435 50.5543L13.9964 43.2394L13.6484 41.6091Z" fill="#0A557F"/>
<path id="Vector_2" d="M11.74 50.5474L11.392 52.1777L11.74 53.8081L12.088 52.1777L11.74 50.5474Z" fill="#0A557F"/>
<path id="Vector_3" d="M8.42327 1.55177L6.86185 8.86668L7.20987 10.497L8.77129 3.18214L8.42327 1.55177Z" fill="#0A557F"/>
<path id="Vector_4" d="M6.51462 10.4885L6.16661 12.1188L6.51462 13.7492L6.86263 12.1188L6.51462 10.4885Z" fill="#0A557F"/>
<path id="Vector_5" d="M1.46965 37.4077L3.83534 26.3095L6.70633 23.3736L3.2513 39.5597L1.46965 37.4077Z" fill="#CFF1FF"/>
<path id="Vector_6" d="M4.13731 62.8011L3.53687 59.9882L4.34731 56.1914L3.99951 54.5621L3.18907 58.3588L2.6608 55.884L4.10122 46.1078L6.16177 55.7457L4.13731 62.8011Z" fill="#4CC3F2"/>
<path id="Vector_7" d="M4.2495 38.139L3.67412 40.8346L7.27722 57.7143L7.8526 55.0188L4.2495 38.139Z" fill="#CFF1FF"/>
<path id="Vector_8" d="M10.3813 56.9755L8.01231 68.0583L7.55295 59.6963L11.0047 43.5256L10.3813 56.9755Z" fill="#CFF1FF"/>
<path id="Vector_9" d="M8.20252 53.3938L4.59656 36.5161L10.0465 10.9842L11.674 18.6084L10.4895 24.1575C9.8759 22.067 9.01296 22.3129 8.45845 24.9107C7.90722 27.4931 7.85144 31.5511 8.29767 34.4255L7.27068 39.2368L7.61848 40.8662L8.64547 36.0549C9.25904 38.1454 10.122 37.8841 10.6765 35.3017C11.2277 32.7193 11.2835 28.6613 10.8373 25.7868L12.0218 20.2378L13.6492 27.862L8.20252 53.3938Z" fill="#4CC3F2"/>
<path id="Vector_10" d="M13.9938 26.2326L10.3977 9.37022C11.1819 5.98851 12.0186 4.15932 12.8028 3.22166L15.3063 14.95C15.1061 18.6392 14.719 22.5589 13.9938 26.2326Z" fill="#CFF1FF"/>
<path id="Vector_11" d="M15.7032 0.316556C15.6507 0.301184 15.5949 0.270442 15.5358 0.25507C14.3678 -0.1907 11.9397 -1.14373 9.87261 8.55562L7.34942 20.3762L3.58924 24.2191L0.511543 38.6374L3.19879 41.8962L3.74674 44.4632L2.02414 56.1762L2.84115 60.0036L2.37194 62.2017L2.71974 63.8311L3.18895 61.633L4.08798 65.8448L6.51273 57.4059L7.0574 59.9575L7.753 72.5467L10.8307 58.1283L11.651 40.5127L14.1742 28.6921C16.2413 19.0082 16.0411 7.63333 15.946 2.16112C15.9427 1.88444 15.9361 1.62312 15.9329 1.37718L15.9165 0.393413L15.7032 0.316556ZM4.13719 62.8012L3.53675 59.9883L4.34719 56.1915L3.99939 54.5622L3.18895 58.3589L2.66068 55.8841L4.1011 46.1079L6.16165 55.7611L4.13719 62.8012ZM1.46963 37.4077L3.83861 26.3096L6.7096 23.3736L3.25129 39.5597L1.46963 37.4077ZM7.85144 55.0233L7.27724 57.7287L3.67455 40.8355L4.24875 38.1455L7.85144 55.0233ZM10.3812 56.9755L8.01549 68.0582L7.55613 59.6962L11.0112 43.5101L10.3812 56.9755ZM8.20252 53.3939L4.59655 36.5162L10.0465 10.9843L11.674 18.6085L10.4895 24.1576C9.8759 22.0671 9.01296 22.313 8.45845 24.9108C7.90722 27.4932 7.85144 31.5512 8.29767 34.4257L7.27068 39.2369L7.61848 40.8663L8.64547 36.055C9.25904 38.1455 10.122 37.8842 10.6765 35.3018C11.2277 32.7194 11.2835 28.6614 10.8373 25.7869L12.0218 20.2379L13.6492 27.8621L8.20252 53.3939ZM10.3287 26.5555C10.7487 28.523 10.7487 31.7203 10.3287 33.6878C9.90871 35.6554 9.22623 35.6554 8.80625 33.6878C8.38626 31.7203 8.38626 28.523 8.80625 26.5555C9.22623 24.588 9.90871 24.588 10.3287 26.5555ZM15.3062 14.9501C15.106 18.6239 14.7188 22.5436 13.9937 26.2173L10.3976 9.3703C11.1818 5.9886 12.0185 4.1594 12.8027 3.22175L15.3062 14.9501ZM15.4243 12.2447L13.3801 2.68375C14.2136 2.08426 14.9518 2.34558 15.4538 2.54541C15.4965 4.89723 15.5523 8.35579 15.4243 12.2447Z" fill="#0A557F"/>
<path id="Vector_12" d="M2.02433 63.8167L1.67632 65.447L2.02433 67.0774L2.37234 65.447L2.02433 63.8167Z" fill="#0A557F"/>
<path id="Vector_13" d="M3.39315 65.8421L2.41407 70.4289L2.76208 72.0592L3.74116 67.4725L3.39315 65.8421Z" fill="#0A557F"/>
<path id="Vector_14" d="M2.06737 72.053L1.71931 73.6834L2.06732 75.314L2.41539 73.6836L2.06737 72.053Z" fill="#0A557F"/>
<path id="Vector_15" d="M1.67555 57.786L0.69647 62.3728L1.04448 64.0031L2.02356 59.4164L1.67555 57.786Z" fill="#0A557F"/>
<path id="Vector_16" d="M0.348013 64.0199L0 65.6503L0.348013 67.2806L0.696026 65.6503L0.348013 64.0199Z" fill="#0A557F"/>
<path id="Vector_17" d="M6.91965 40.8872L6.57164 42.5175L6.91965 44.1479L7.26766 42.5175L6.91965 40.8872Z" fill="white"/>
</g>
</svg>
