<svg width="18" height="80" viewBox="0 0 18 80" fill="none" xmlns="http://www.w3.org/2000/svg">
<g id="Group">
<path id="Vector" d="M15.1805 44.198L13.4438 51.9681L13.8308 53.6999L15.5675 45.9298L15.1805 44.198Z" fill="#0A557F"/>
<path id="Vector_2" d="M13.0577 53.6924L12.6706 55.4242L13.0577 57.156L13.4448 55.4242L13.0577 53.6924Z" fill="#0A557F"/>
<path id="Vector_3" d="M9.36894 1.64836L7.63224 9.4184L8.01932 11.1502L9.75601 3.38016L9.36894 1.64836Z" fill="#0A557F"/>
<path id="Vector_4" d="M7.24596 11.141L6.85888 12.8728L7.24596 14.6046L7.63304 12.8728L7.24596 11.141Z" fill="#0A557F"/>
<path id="Vector_5" d="M1.63462 39.7353L4.26588 27.9466L7.45915 24.828L3.61627 42.0212L1.63462 39.7353Z" fill="#CFF1FF"/>
<path id="Vector_6" d="M4.60166 66.7088L3.93381 63.7208L4.83522 59.6879L4.44838 57.9571L3.54697 61.9901L2.95941 59.3613L4.56151 48.9768L6.85337 59.2144L4.60166 66.7088Z" fill="#4CC3F2"/>
<path id="Vector_7" d="M4.72652 40.5121L4.08655 43.3753L8.09411 61.3053L8.73408 58.4421L4.72652 40.5121Z" fill="#CFF1FF"/>
<path id="Vector_8" d="M11.5465 60.5205L8.91162 72.2929L8.40069 63.4106L12.2399 46.2337L11.5465 60.5205Z" fill="#CFF1FF"/>
<path id="Vector_9" d="M9.1233 56.7162L5.11255 38.7883L11.1743 11.6678L12.9844 19.7664L11.667 25.6607C10.9845 23.4401 10.0247 23.7014 9.40795 26.4608C8.79485 29.2039 8.7328 33.5144 9.22913 36.5677L8.08685 41.6783L8.47369 43.409L9.61597 38.2984C10.2984 40.519 11.2582 40.2415 11.875 37.4984C12.4881 34.7553 12.5501 30.4448 12.0538 27.3915L13.3713 21.4971L15.1814 29.5957L9.1233 56.7162Z" fill="#4CC3F2"/>
<path id="Vector_10" d="M15.5647 27.8649L11.5649 9.95332C12.4371 6.3612 13.3677 4.41819 14.2399 3.4222L17.0244 15.8803C16.8018 19.799 16.3712 23.9626 15.5647 27.8649Z" fill="#CFF1FF"/>
<path id="Vector_11" d="M17.4661 0.336252C17.4077 0.319924 17.3456 0.287269 17.2799 0.270941C15.9807 -0.202566 13.2801 -1.21489 10.981 9.08796L8.17456 21.644L3.99228 25.726L0.569098 41.0415L3.558 44.503L4.16746 47.2297L2.2515 59.6715L3.16021 63.7371L2.63834 66.072L3.02518 67.8028L3.54705 65.4679L4.547 69.9417L7.24395 60.9777L7.84975 63.6882L8.62344 77.0606L12.0466 61.7451L12.959 43.0335L15.7654 30.4774C18.0646 20.1909 17.842 8.10829 17.7361 2.29559C17.7325 2.00169 17.7252 1.72412 17.7215 1.46287L17.7033 0.417891L17.4661 0.336252ZM4.60174 66.7088L3.93389 63.7208L4.83531 59.6878L4.44847 57.9571L3.54705 61.9901L2.95949 59.3613L4.5616 48.9768L6.85345 59.2307L4.60174 66.7088ZM1.63474 39.7353L4.26964 27.9466L7.46291 24.828L3.61639 42.0211L1.63474 39.7353ZM8.73292 58.4469L8.09427 61.3206L4.08717 43.3764L4.72582 40.519L8.73292 58.4469ZM11.5467 60.5206L8.91539 72.2929L8.40447 63.4106L12.2473 46.2174L11.5467 60.5206ZM9.12341 56.7162L5.11267 38.7882L11.1744 11.6678L12.9845 19.7663L11.6671 25.6607C10.9846 23.4401 10.0248 23.7013 9.40807 26.4607C8.79496 29.2038 8.73292 33.5144 9.22925 36.5677L8.08697 41.6783L8.47381 43.409L9.61609 38.2984C10.2985 40.519 11.2583 40.2414 11.8751 37.4983C12.4882 34.7553 12.5502 30.4447 12.0539 27.3914L13.3714 21.4971L15.1815 29.5957L9.12341 56.7162ZM11.4883 28.2078C11.9554 30.2978 11.9554 33.694 11.4883 35.7839C11.0211 37.8739 10.262 37.8739 9.79491 35.7839C9.32778 33.694 9.32778 30.2978 9.79491 28.2078C10.262 26.1179 11.0211 26.1179 11.4883 28.2078ZM17.0245 15.8803C16.8019 19.7827 16.3712 23.9463 15.5647 27.8486L11.5649 9.95333C12.4371 6.36121 13.3677 4.4182 14.2399 3.42221L17.0245 15.8803ZM17.1559 13.0066L14.8822 2.85073C15.8092 2.21395 16.6303 2.49152 17.1887 2.70378C17.2361 5.20194 17.2982 8.8757 17.1559 13.0066Z" fill="#0A557F"/>
<path id="Vector_12" d="M2.25175 67.7873L1.86467 69.5191L2.25175 71.2509L2.63882 69.5191L2.25175 67.7873Z" fill="#0A557F"/>
<path id="Vector_13" d="M3.77415 69.9388L2.68517 74.811L3.07225 76.5428L4.16123 71.6706L3.77415 69.9388Z" fill="#0A557F"/>
<path id="Vector_14" d="M2.29943 76.5362L1.9123 78.268L2.29937 80L2.68651 78.2682L2.29943 76.5362Z" fill="#0A557F"/>
<path id="Vector_15" d="M1.86357 61.3815L0.774591 66.2536L1.16167 67.9855L2.25065 63.1133L1.86357 61.3815Z" fill="#0A557F"/>
<path id="Vector_16" d="M0.387079 68.0032L0 69.735L0.387079 71.4668L0.774158 69.735L0.387079 68.0032Z" fill="#0A557F"/>
<path id="Vector_17" d="M7.69647 43.4312L7.30939 45.163L7.69647 46.8948L8.08355 45.163L7.69647 43.4312Z" fill="white"/>
</g>
</svg>
